HIERARCHY
ROOT Hips
{
	OFFSET 0.000000 83.214638 0.000000
	CHANNELS 6 Xposition Yposition Zposition Xrotation Yrotation Zrotation
	JOINT Pelvis
	{
		OFFSET 0.000000 0.000000 0.000000
		CHANNELS 3 Xrotation Yrotation Zrotation
		JOINT LeftUpLeg
		{
			OFFSET 8.479700 -4.795502 -0.379100
			CHANNELS 3 Xrotation Yrotation Zrotation
			JOINT LeftLeg
			{
				OFFSET 0.024144 -32.555107 0.112900
				CHANNELS 3 Xrotation Yrotation Zrotation
				JOINT LeftFoot
				{
					OFFSET -0.024144 -32.638630 -3.012600
					CHANNELS 3 Xrotation Yrotation Zrotation
					JOINT LeftToeBase
					{
						OFFSET 0.970200 -13.225400 11.864200
						CHANNELS 3 Xrotation Yrotation Zrotation
						End Site
						{
							OFFSET 0.000000 12.319262 0.000000
						}
					}
					JOINT LFootTongue
					{
						OFFSET 1.142400 -1.059800 6.665200
						CHANNELS 3 Xrotation Yrotation Zrotation
						End Site
						{
							OFFSET 0.000000 12.319262 0.000000
						}
					}
				}
				JOINT LeftPantLeg
				{
					OFFSET 0.918482 -16.533964 -2.284700
					CHANNELS 3 Xrotation Yrotation Zrotation
					End Site
					{
						OFFSET 0.350399 24.744368 0.000000
					}
				}
			}
		}
		JOINT RightUpLeg
		{
			OFFSET -8.479700 -4.795502 -0.379100
			CHANNELS 3 Xrotation Yrotation Zrotation
			JOINT RightLeg
			{
				OFFSET -0.023144 -32.555092 0.112900
				CHANNELS 3 Xrotation Yrotation Zrotation
				JOINT RightFoot
				{
					OFFSET 0.023144 -32.638641 -3.012700
					CHANNELS 3 Xrotation Yrotation Zrotation
					JOINT RightToeBase
					{
						OFFSET -0.970200 -13.225400 11.864200
						CHANNELS 3 Xrotation Yrotation Zrotation
						End Site
						{
							OFFSET 0.000000 12.319244 0.000000
						}
					}
					JOINT RFootTongue
					{
						OFFSET -1.142200 -1.059800 6.665200
						CHANNELS 3 Xrotation Yrotation Zrotation
						End Site
						{
							OFFSET 0.000000 12.319243 0.000000
						}
					}
				}
				JOINT RightPantLeg
				{
					OFFSET -0.919482 -16.533978 -2.284800
					CHANNELS 3 Xrotation Yrotation Zrotation
					End Site
					{
						OFFSET -0.350400 24.744419 0.000000
					}
				}
			}
		}
	}
	JOINT Spine
	{
		OFFSET 0.000000 7.722000 1.166200
		CHANNELS 3 Xrotation Yrotation Zrotation
		JOINT Spine1
		{
			OFFSET 0.000000 12.024101 0.248800
			CHANNELS 3 Xrotation Yrotation Zrotation
			JOINT Spine2
			{
				OFFSET 0.000000 11.502998 -0.491200
				CHANNELS 3 Xrotation Yrotation Zrotation
				JOINT Neck
				{
					OFFSET 0.000000 18.430702 -3.123100
					CHANNELS 3 Xrotation Yrotation Zrotation
					JOINT Head
					{
						OFFSET 0.000000 9.051102 1.034000
						CHANNELS 3 Xrotation Yrotation Zrotation
						JOINT HairB
						{
							OFFSET 0.208400 24.786102 24.822300
							CHANNELS 3 Xrotation Yrotation Zrotation
							End Site
							{
								OFFSET 0.000000 32.263779 0.000000
							}
						}
						JOINT HairA
						{
							OFFSET -7.081100 24.428299 23.196600
							CHANNELS 3 Xrotation Yrotation Zrotation
							End Site
							{
								OFFSET 0.000000 32.263779 0.000000
							}
						}
						JOINT Hat
						{
							OFFSET 16.728800 15.048294 -15.439601
							CHANNELS 3 Xrotation Yrotation Zrotation
							End Site
							{
								OFFSET 0.000000 32.263779 0.000000
							}
						}
					}
				}
				JOINT LeftShoulder
				{
					OFFSET 6.197800 13.665199 -4.064700
					CHANNELS 3 Xrotation Yrotation Zrotation
					JOINT LeftArm
					{
						OFFSET 7.778100 -0.187103 -1.709300
						CHANNELS 3 Xrotation Yrotation Zrotation
						JOINT LeftForeArm
						{
							OFFSET 22.049376 0.000000 0.000000
							CHANNELS 3 Xrotation Yrotation Zrotation
							JOINT LeftHand
							{
								OFFSET 23.009392 0.000000 0.000000
								CHANNELS 3 Xrotation Yrotation Zrotation
								JOINT LeftHandThumb1
								{
									OFFSET 3.507191 -2.063065 3.133727
									CHANNELS 3 Xrotation Yrotation Zrotation
									JOINT LeftHandThumb2
									{
										OFFSET 3.101337 -1.790558 1.790558
										CHANNELS 3 Xrotation Yrotation Zrotation
										JOINT LeftHandThumb3
										{
											OFFSET 3.058640 -1.765907 1.765906
											CHANNELS 3 Xrotation Yrotation Zrotation
											End Site
											{
												OFFSET -0.415260 3.926476 -0.049563
											}
										}
									}
								}
								JOINT LeftHandIndex1
								{
									OFFSET 11.334419 -0.901459 3.706815
									CHANNELS 3 Xrotation Yrotation Zrotation
									JOINT LeftHandIndex2
									{
										OFFSET 3.283112 0.000000 0.000000
										CHANNELS 3 Xrotation Yrotation Zrotation
										JOINT LeftHandIndex3
										{
											OFFSET 3.323853 0.000000 0.000000
											CHANNELS 3 Xrotation Yrotation Zrotation
											End Site
											{
												OFFSET -1.135597 3.097809 0.402452
											}
										}
									}
								}
								JOINT LeftHandMiddle1
								{
									OFFSET 11.335861 0.000000 0.000000
									CHANNELS 3 Xrotation Yrotation Zrotation
									JOINT LeftHandMiddle2
									{
										OFFSET 3.410492 0.000000 0.000000
										CHANNELS 3 Xrotation Yrotation Zrotation
										JOINT LeftHandMiddle3
										{
											OFFSET 3.312172 0.000000 0.000000
											CHANNELS 3 Xrotation Yrotation Zrotation
											End Site
											{
												OFFSET -1.150200 3.080154 0.400270
											}
										}
									}
								}
								JOINT LeftHandRing1
								{
									OFFSET 11.514786 -0.013176 -3.003090
									CHANNELS 3 Xrotation Yrotation Zrotation
									JOINT LeftHandRing2
									{
										OFFSET 3.053307 0.000000 0.000000
										CHANNELS 3 Xrotation Yrotation Zrotation
										JOINT LeftHandRing3
										{
											OFFSET 3.295807 0.000000 0.000000
											CHANNELS 3 Xrotation Yrotation Zrotation
											End Site
											{
												OFFSET -1.281006 3.013344 0.375733
											}
										}
									}
								}
								JOINT LeftHandPinky1
								{
									OFFSET 10.518692 -0.960396 -5.730441
									CHANNELS 3 Xrotation Yrotation Zrotation
									JOINT LeftHandPinky2
									{
										OFFSET 2.861649 0.000000 0.000000
										CHANNELS 3 Xrotation Yrotation Zrotation
										JOINT LeftHandPinky3
										{
											OFFSET 2.863380 0.000000 0.000000
											CHANNELS 3 Xrotation Yrotation Zrotation
											End Site
											{
												OFFSET -0.843597 2.711159 0.369971
											}
										}
									}
								}
							}
							JOINT LSleeve
							{
								OFFSET 6.676277 -0.344902 -1.011730
								CHANNELS 3 Xrotation Yrotation Zrotation
								End Site
								{
									OFFSET 0.000000 14.885353 0.000000
								}
							}
						}
					}
				}
				JOINT RightShoulder
				{
					OFFSET -6.197800 13.665199 -4.064700
					CHANNELS 3 Xrotation Yrotation Zrotation
					JOINT RightArm
					{
						OFFSET -7.778100 -0.187103 -1.709300
						CHANNELS 3 Xrotation Yrotation Zrotation
						JOINT RightForeArm
						{
							OFFSET -22.049376 0.000000 0.000000
							CHANNELS 3 Xrotation Yrotation Zrotation
							JOINT RightHand
							{
								OFFSET -23.009392 0.000000 0.000000
								CHANNELS 3 Xrotation Yrotation Zrotation
								JOINT RightHandThumb1
								{
									OFFSET -3.507191 -2.063065 3.133727
									CHANNELS 3 Xrotation Yrotation Zrotation
									JOINT RightHandThumb2
									{
										OFFSET -3.101337 -1.790558 1.790558
										CHANNELS 3 Xrotation Yrotation Zrotation
										JOINT RightHandThumb3
										{
											OFFSET -3.058640 -1.765907 1.765906
											CHANNELS 3 Xrotation Yrotation Zrotation
											End Site
											{
												OFFSET 0.415260 3.926476 -0.049563
											}
										}
									}
								}
								JOINT RightHandIndex1
								{
									OFFSET -11.334419 -0.901459 3.706815
									CHANNELS 3 Xrotation Yrotation Zrotation
									JOINT RightHandIndex2
									{
										OFFSET -3.283112 0.000000 0.000000
										CHANNELS 3 Xrotation Yrotation Zrotation
										JOINT RightHandIndex3
										{
											OFFSET -3.323853 0.000000 0.000000
											CHANNELS 3 Xrotation Yrotation Zrotation
											End Site
											{
												OFFSET 1.135597 3.097809 0.402452
											}
										}
									}
								}
								JOINT RightHandMiddle1
								{
									OFFSET -11.335861 0.000000 0.000000
									CHANNELS 3 Xrotation Yrotation Zrotation
									JOINT RightHandMiddle2
									{
										OFFSET -3.410492 0.000000 0.000000
										CHANNELS 3 Xrotation Yrotation Zrotation
										JOINT RightHandMiddle3
										{
											OFFSET -3.312172 0.000000 0.000000
											CHANNELS 3 Xrotation Yrotation Zrotation
											End Site
											{
												OFFSET 1.150200 3.080154 0.400270
											}
										}
									}
								}
								JOINT RightHandRing1
								{
									OFFSET -11.514786 -0.013176 -3.003090
									CHANNELS 3 Xrotation Yrotation Zrotation
									JOINT RightHandRing2
									{
										OFFSET -3.053307 0.000000 0.000000
										CHANNELS 3 Xrotation Yrotation Zrotation
										JOINT RightHandRing3
										{
											OFFSET -3.295807 0.000000 0.000000
											CHANNELS 3 Xrotation Yrotation Zrotation
											End Site
											{
												OFFSET 1.281006 3.013344 0.375733
											}
										}
									}
								}
								JOINT RightHandPinky1
								{
									OFFSET -10.518692 -0.960396 -5.730441
									CHANNELS 3 Xrotation Yrotation Zrotation
									JOINT RightHandPinky2
									{
										OFFSET -2.861649 0.000000 0.000000
										CHANNELS 3 Xrotation Yrotation Zrotation
										JOINT RightHandPinky3
										{
											OFFSET -2.863380 0.000000 0.000000
											CHANNELS 3 Xrotation Yrotation Zrotation
											End Site
											{
												OFFSET 0.843597 2.711159 0.369971
											}
										}
									}
								}
							}
							JOINT RSleeve
							{
								OFFSET -6.676277 -0.344902 -1.011730
								CHANNELS 3 Xrotation Yrotation Zrotation
								End Site
								{
									OFFSET 0.000000 14.885353 0.000000
								}
							}
						}
					}
				}
				JOINT Backpack
				{
					OFFSET 0.000000 -2.471497 36.677502
					CHANNELS 3 Xrotation Yrotation Zrotation
					End Site
					{
						OFFSET 0.000000 20.427315 0.000000
					}
				}
				JOINT Hood
				{
					OFFSET 0.000000 18.754097 -10.431000
					CHANNELS 3 Xrotation Yrotation Zrotation
					JOINT Hood1
					{
						OFFSET 0.000000 -5.011002 -7.685901
						CHANNELS 3 Xrotation Yrotation Zrotation
						End Site
						{
							OFFSET 0.000000 9.175140 0.000000
						}
					}
				}
				JOINT LHoodieString
				{
					OFFSET 5.250500 16.397697 3.089900
					CHANNELS 3 Xrotation Yrotation Zrotation
					JOINT LHoodieString1
					{
						OFFSET 0.257700 -6.364304 3.694600
						CHANNELS 3 Xrotation Yrotation Zrotation
						JOINT LHoodieString2
						{
							OFFSET 0.000000 -9.643799 2.679100
							CHANNELS 3 Xrotation Yrotation Zrotation
							End Site
							{
								OFFSET 0.000000 10.009018 0.000000
							}
						}
					}
				}
				JOINT RHoodieString
				{
					OFFSET -5.250500 16.397697 3.089900
					CHANNELS 3 Xrotation Yrotation Zrotation
					JOINT RHoodieString1
					{
						OFFSET -0.257700 -6.364304 3.694600
						CHANNELS 3 Xrotation Yrotation Zrotation
						JOINT RHoodieString2
						{
							OFFSET 0.000000 -9.643799 2.679100
							CHANNELS 3 Xrotation Yrotation Zrotation
							End Site
							{
								OFFSET 0.000000 10.009018 0.000000
							}
						}
					}
				}
			}
			JOINT LBackpack_Strap
			{
				OFFSET 15.223200 -7.719803 -6.610900
				CHANNELS 3 Xrotation Yrotation Zrotation
				End Site
				{
					OFFSET 0.000000 16.040596 0.000000
				}
			}
			JOINT RBackpack_Strap
			{
				OFFSET -15.223000 -7.719803 -6.610900
				CHANNELS 3 Xrotation Yrotation Zrotation
				End Site
				{
					OFFSET 0.000000 16.040596 0.000000
				}
			}
		}
	}
	JOINT BoyFacialAnim_Joint
	{
		OFFSET 1.000000 -82.208099 -1.550900
		CHANNELS 3 Xrotation Yrotation Zrotation
		End Site
		{
			OFFSET 0.000000 30.012791 0.000000
		}
	}
}
MOTION
Frames: 4
Frame Time: 0.016667
-0.093158 72.468597 -0.632439 -14.105828 4.551974 -0.320189 0.000001 -0.000001 -0.000000 -19.279645 -2.205793 14.170146 58.150250 -0.402710 0.374198 -24.411267 -1.509364 -11.774687 0.000000 -0.000001 -0.000000 0.000000 -0.000001 -0.000000 -0.000003 -0.000001 -0.000002 -15.740697 -9.794490 -15.694236 57.735125 0.101132 -0.385129 -26.972373 -3.746731 10.498048 0.000000 0.000000 0.000000 0.000000 0.000000 0.000000 0.000001 -0.000001 -0.000001 20.019334 -0.034546 0.809809 6.967089 -0.338070 0.675294 6.967315 -0.337866 0.674353 -12.249458 -1.248218 -0.495995 -16.116728 -1.754206 -0.002254 -0.000000 -0.000000 -0.000000 -0.000000 -0.000000 -0.000000 -0.000000 -0.000000 -0.000000 3.082217 -9.945119 -6.811323 -13.959269 -7.908214 -60.295271 69.634311 -63.509114 71.597116 17.167868 -2.491244 -13.648302 2.689276 3.159888 6.593328 -0.080940 21.143650 -2.540004 0.000001 0.000000 0.000002 -10.621164 2.937297 -19.267713 1.669111 6.188697 -21.755667 -0.000001 0.000000 -0.000002 -13.823040 9.936950 -22.469203 6.048995 4.246402 -31.221966 -0.000000 0.000002 -0.000003 -10.744666 8.325287 -36.571077 3.038183 0.221621 -39.078709 -0.000000 0.000002 -0.000004 -11.942407 9.095571 -39.265460 4.640671 -6.164091 -45.289301 0.000002 -0.000001 0.000001 -0.000001 -0.000001 0.000001 8.709541 -2.418522 18.823141 -21.494481 12.934336 56.855492 76.344125 65.516991 -70.724567 6.443792 -2.140699 3.544994 2.694436 -3.160172 -6.583867 -0.079171 -21.146003 2.540870 0.000002 0.000001 0.000001 -10.621208 -2.937111 19.269089 1.668960 -6.188790 21.755269 -0.000003 0.000001 0.000004 -13.688495 -10.244133 24.164217 6.044757 -4.250364 31.223349 0.000000 -0.000004 0.000003 -10.744594 -8.325840 36.570001 3.042380 -0.220470 39.078753 -0.000003 -0.000006 -0.000000 -11.872852 -9.179265 39.252001 4.640932 6.162594 45.288829 -0.000000 -0.000001 -0.000002 0.000001 -0.000001 -0.000001 0.000001 0.000000 0.000000 0.000001 0.000000 0.000000 0.000001 0.000000 0.000000 0.000001 0.000000 0.000000 0.000001 0.000000 0.000000 -0.000001 0.000000 0.000000 0.000001 0.000000 0.000000 0.000001 0.000000 0.000000 -0.000001 0.000000 0.000000 0.000000 -0.000000 0.000000 0.000000 -0.000000 0.000000 0.000001 -0.000001 -0.000000 
-0.087797 72.465866 -0.634418 -14.083022 4.564858 -0.331256 -0.000000 -0.000000 0.000000 -19.323375 -2.195266 14.184714 58.169060 -0.451472 0.373875 -24.414791 -1.496308 -11.746486 -0.000000 0.000000 -0.000000 -0.000000 0.000000 -0.000000 -0.000001 -0.000000 -0.000000 -15.764889 -9.802641 -15.690404 57.737071 0.102567 -0.385112 -26.969876 -3.752482 10.501490 0.000000 -0.000000 0.000000 0.000000 -0.000000 0.000000 0.000002 0.000000 -0.000002 20.019315 -0.034371 0.810827 6.967165 -0.337050 0.675000 6.967384 -0.336797 0.673819 -12.274431 -1.249902 -0.501452 -16.104614 -1.759239 0.008366 -0.000001 0.000000 -0.000000 -0.000001 0.000000 -0.000000 -0.000001 0.000000 -0.000000 3.081948 -9.940218 -6.846194 -13.919035 -8.007096 -60.186568 69.508404 -63.495201 71.476181 17.165992 -2.496260 -13.676344 2.740403 3.355875 6.651965 -0.304235 20.508162 -2.520038 0.000001 -0.000001 0.000002 -10.843758 2.408690 -18.034237 1.583737 5.984707 -20.446045 -0.000003 -0.000002 0.000001 -13.988355 9.479579 -21.637631 5.872528 4.134097 -30.142960 0.000002 -0.000000 -0.000003 -10.745585 7.991167 -35.808223 2.902354 0.024352 -37.900894 -0.000001 -0.000003 -0.000001 -11.884761 8.825189 -38.571769 4.536601 -6.270399 -44.699046 0.000001 0.000003 0.000002 0.000001 -0.000000 -0.000001 8.719991 -2.431949 18.863523 -21.419391 13.027297 56.754146 76.284115 65.521547 -70.684371 6.443179 -2.129468 3.550590 2.691618 -3.150272 -6.581371 -0.140263 -20.912591 2.443749 -0.000000 0.000002 0.000000 -10.723854 -2.678730 18.376243 1.607986 -6.040030 20.834099 -0.000002 -0.000001 0.000003 -13.789869 -9.992654 23.322258 5.930026 -4.112804 30.347688 0.000003 -0.000001 0.000001 -10.804170 -8.106066 35.619491 2.942615 -0.098413 38.315835 0.000001 -0.000003 0.000002 -11.920073 -8.998293 38.400430 4.514696 6.278559 44.542676 0.000000 -0.000002 0.000002 0.000002 0.000001 0.000001 0.000002 0.000000 -0.000000 0.000002 0.000000 -0.000000 0.000002 0.000000 -0.000000 0.000002 0.000000 -0.000000 0.000002 0.000000 -0.000000 0.000000 -0.000000 -0.000000 0.000002 0.000000 -0.000000 0.000002 0.000000 -0.000000 0.000000 -0.000000 -0.000000 0.000001 0.000000 0.000000 0.000001 0.000000 0.000000 -0.000000 -0.000000 0.000000 
-0.074956 72.461777 -0.637413 -14.047962 4.597782 -0.349122 -0.000000 0.000000 0.000000 -19.397167 -2.179934 14.205439 58.202494 -0.539162 0.373189 -24.420906 -1.476787 -11.692155 -0.000000 -0.000001 0.000000 -0.000000 -0.000001 0.000000 -0.000001 0.000001 0.000001 -15.797083 -9.822697 -15.688200 57.734694 0.103120 -0.385033 -26.964001 -3.764595 10.512406 -0.000000 -0.000000 -0.000000 -0.000000 -0.000000 -0.000000 0.000001 -0.000001 0.000000 20.019343 -0.034096 0.812623 6.967762 -0.333988 0.674076 6.967984 -0.333704 0.672075 -12.339812 -1.259015 -0.511593 -16.061070 -1.772782 0.024099 -0.000001 0.000000 0.000000 -0.000001 0.000000 0.000000 -0.000001 0.000000 0.000000 3.081505 -9.932723 -6.899785 -13.772136 -8.303073 -59.856588 69.210566 -63.491212 71.193685 17.161974 -2.546404 -13.762101 2.843736 3.755994 6.771128 -0.770428 19.209924 -2.488547 0.000000 -0.000001 -0.000000 -11.271545 1.302796 -15.505448 1.424468 5.551972 -17.730270 -0.000001 0.000001 -0.000005 -14.321397 8.535457 -19.931544 5.513428 3.887929 -27.908904 -0.000000 -0.000000 -0.000002 -10.734827 7.300055 -34.231774 2.630256 -0.392169 -35.470716 -0.000001 0.000002 0.000003 -11.758232 8.260808 -37.125285 4.322547 -6.494799 -43.471921 0.000000 0.000001 0.000002 0.000001 0.000000 0.000001 8.739790 -2.465330 18.929304 -21.199618 13.256777 56.475580 76.163883 65.580348 -70.597327 6.440271 -2.094185 3.595602 2.684923 -3.126740 -6.575406 -0.271181 -20.426825 2.250004 -0.000003 -0.000003 0.000004 -10.925252 -2.140294 16.541893 1.491005 -5.724728 18.914804 -0.000001 -0.000001 0.000003 -13.991228 -9.467893 21.606989 5.700135 -3.821556 28.537084 0.000001 0.000004 0.000002 -10.911725 -7.639134 33.676709 2.742893 0.160238 36.738495 -0.000000 0.000000 0.000000 -12.003655 -8.605892 36.648965 4.260995 6.522129 43.011030 0.000000 0.000002 -0.000001 0.000002 -0.000001 -0.000000 0.000003 -0.000000 -0.000000 0.000003 -0.000000 -0.000000 0.000003 -0.000000 -0.000000 0.000003 -0.000000 -0.000000 0.000003 -0.000000 -0.000000 0.000001 0.000000 -0.000000 0.000003 -0.000000 -0.000000 0.000003 -0.000000 -0.000000 0.000001 0.000000 -0.000000 -0.000000 -0.000000 0.000000 -0.000000 -0.000000 0.000000 -0.000000 0.000000 0.000000 
-0.058217 72.461243 -0.633888 -14.041650 4.642801 -0.352984 -0.000000 0.000000 -0.000000 -19.424298 -2.185205 14.198282 58.222383 -0.582597 0.372696 -24.428766 -1.475536 -11.654663 -0.000000 -0.000000 -0.000000 -0.000000 -0.000000 -0.000000 -0.000001 -0.000000 -0.000001 -15.785083 -9.850708 -15.702904 57.718124 0.099431 -0.384914 -26.960333 -3.774637 10.532335 0.000000 -0.000002 0.000000 0.000000 -0.000002 0.000000 0.000000 0.000000 -0.000001 20.019713 -0.034226 0.812702 6.970447 -0.329655 0.671555 6.970662 -0.329434 0.668393 -12.447030 -1.280075 -0.519118 -15.961775 -1.792115 0.025987 -0.000001 0.000000 0.000000 -0.000001 0.000000 0.000000 -0.000001 0.000000 0.000000 3.083197 -9.935515 -6.902657 -13.503002 -8.789854 -59.312372 68.869863 -63.545949 70.887269 17.160143 -2.676764 -13.924298 2.936494 4.117306 6.878261 -1.207017 18.029218 -2.472050 0.000002 -0.000000 0.000001 -11.627931 0.244306 -13.176314 1.292645 5.132267 -15.152092 0.000001 0.000000 -0.000005 -14.610818 7.654071 -18.356424 5.188265 3.625257 -25.799320 -0.000000 0.000001 0.000000 -10.691626 6.650399 -32.754599 2.397527 -0.806217 -33.196236 0.000001 0.000000 -0.000000 -11.617390 7.716405 -35.737729 4.124012 -6.717353 -42.299262 0.000002 -0.000002 -0.000001 0.000003 -0.000000 -0.000000 8.753002 -2.509401 18.951115 -20.864466 13.561960 56.069310 76.084353 65.725701 -70.530378 6.436109 -2.033747 3.726623 2.676299 -3.096404 -6.567730 -0.405705 -19.962976 2.085454 -0.000005 0.000001 -0.000001 -11.113376 -1.627060 14.850571 1.387889 -5.417896 17.068581 -0.000003 -0.000002 0.000005 -14.172701 -8.971330 20.058923 5.490048 -3.541211 26.833409 -0.000002 -0.000001 -0.000002 -10.985395 -7.177320 31.907741 2.563237 0.413046 35.256132 -0.000001 -0.000001 0.000000 -12.051316 -8.201147 35.024418 4.032094 6.754991 41.602918 0.000001 0.000002 0.000001 0.000002 0.000000 -0.000000 0.000002 -0.000000 -0.000000 0.000002 -0.000000 -0.000000 0.000002 -0.000000 -0.000000 0.000002 -0.000000 -0.000000 0.000002 -0.000000 -0.000000 -0.000000 -0.000000 -0.000000 0.000002 -0.000000 -0.000000 0.000002 -0.000000 -0.000000 -0.000000 -0.000000 -0.000000 0.000001 -0.000000 0.000000 0.000001 -0.000000 0.000000 -0.000000 0.000000 -0.000000 
